<svg width="204" height="144" viewBox="0 0 204 144" fill="none" xmlns="http://www.w3.org/2000/svg">
<path fill-rule="evenodd" clip-rule="evenodd" d="M112.112 5L87.2082 64.4577C77.964 67.1685 69.7228 72.1608 63.1583 78.7699L94.0568 5H112.112Z" fill="#E31E24"/>
<path fill-rule="evenodd" clip-rule="evenodd" d="M103.174 65.1357C107.823 65.1357 112.329 65.7497 116.615 66.8992L125.566 88.2702C119.395 83.4354 111.622 80.5523 103.174 80.5523C91.005 80.5523 80.2345 86.5332 73.6378 95.7148H55.9315C64.0264 77.6895 82.1334 65.1357 103.174 65.1357Z" fill="#E31E24"/>
<path fill-rule="evenodd" clip-rule="evenodd" d="M105.32 31.4644L132.231 95.7152H150.287L114.347 9.91064L105.32 31.4644Z" fill="#E31E24"/>
<path d="M5.33156 131L14.9412 109.44H19.8692L29.5096 131H24.2736L16.3888 111.966H18.36L10.4444 131H5.33156ZM10.1364 126.38L11.4608 122.592H22.5488L23.904 126.38H10.1364ZM41.7636 131.37C40.1004 131.37 38.5502 131.103 37.1128 130.569C35.696 130.014 34.464 129.234 33.4168 128.228C32.3696 127.222 31.5483 126.041 30.9528 124.686C30.3779 123.331 30.0904 121.842 30.0904 120.22C30.0904 118.598 30.3779 117.109 30.9528 115.754C31.5483 114.399 32.3696 113.218 33.4168 112.212C34.4846 111.206 35.7268 110.436 37.1436 109.902C38.5604 109.348 40.1107 109.07 41.7944 109.07C43.663 109.07 45.3467 109.399 46.8456 110.056C48.3651 110.693 49.6382 111.637 50.6648 112.89L47.4616 115.846C46.7224 115.005 45.9011 114.378 44.9976 113.968C44.0942 113.536 43.1086 113.321 42.0408 113.321C41.0347 113.321 40.1107 113.485 39.2688 113.814C38.427 114.142 37.698 114.614 37.082 115.23C36.466 115.846 35.9835 116.575 35.6344 117.417C35.3059 118.259 35.1416 119.193 35.1416 120.22C35.1416 121.247 35.3059 122.181 35.6344 123.023C35.9835 123.865 36.466 124.594 37.082 125.21C37.698 125.826 38.427 126.298 39.2688 126.626C40.1107 126.955 41.0347 127.119 42.0408 127.119C43.1086 127.119 44.0942 126.914 44.9976 126.503C45.9011 126.072 46.7224 125.425 47.4616 124.563L50.6648 127.52C49.6382 128.772 48.3651 129.727 46.8456 130.384C45.3467 131.041 43.6527 131.37 41.7636 131.37ZM58.2898 131V113.506H51.3906V109.44H70.1786V113.506H63.2794V131H58.2898ZM72.8632 131V109.44H77.8528V131H72.8632ZM89.3472 131L80.0456 109.44H85.4356L93.5668 128.536H90.3944L98.6488 109.44H103.608L94.2752 131H89.3472Z" fill="#E31E24"/>
<path d="M106.165 131V109.44H116.699C119.409 109.44 121.442 109.953 122.797 110.98C124.173 112.007 124.861 113.362 124.861 115.046C124.861 116.175 124.584 117.161 124.029 118.002C123.475 118.824 122.715 119.46 121.75 119.912C120.785 120.364 119.676 120.59 118.424 120.59L119.009 119.327C120.364 119.327 121.565 119.553 122.612 120.004C123.66 120.436 124.471 121.082 125.046 121.945C125.641 122.807 125.939 123.865 125.939 125.117C125.939 126.965 125.21 128.413 123.752 129.46C122.294 130.487 120.148 131 117.315 131H106.165ZM111.124 127.242H116.945C118.239 127.242 119.214 127.037 119.871 126.626C120.549 126.195 120.888 125.518 120.888 124.594C120.888 123.69 120.549 123.023 119.871 122.592C119.214 122.14 118.239 121.914 116.945 121.914H110.754V118.28H116.083C117.294 118.28 118.218 118.074 118.855 117.664C119.512 117.232 119.84 116.586 119.84 115.723C119.84 114.881 119.512 114.255 118.855 113.844C118.218 113.413 117.294 113.198 116.083 113.198H111.124V127.242ZM126.883 131L136.492 109.44H141.42L151.061 131H145.825L137.94 111.966H139.911L131.996 131H126.883ZM131.688 126.38L133.012 122.592H144.1L145.455 126.38H131.688ZM153.298 131V109.44H157.425L170.145 124.963H168.143V109.44H173.071V131H168.975L156.224 115.477H158.226V131H153.298ZM182.638 126.072L182.361 120.312L192.679 109.44H198.223L188.921 119.45L186.149 122.407L182.638 126.072ZM178.172 131V109.44H183.131V131H178.172ZM192.925 131L185.256 121.606L188.521 118.064L198.747 131H192.925Z" fill="#E31E24"/>
</svg>